<svg xmlns="http://www.w3.org/2000/svg" viewBox="0 0 176 151" width="176" height="151">
	<defs>
		<clipPath clipPathUnits="userSpaceOnUse" id="cp1">
			<path d="M0 0L176 0L176 151L0 151Z" />
		</clipPath>
	</defs>
	<style>
		tspan { white-space:pre }
		.shp0 { fill: #8bc03f } 
	</style>
	<g id="Page 1" clip-path="url(#cp1)">
		<path id="Path 1" class="shp0" d="M120.37 143.79C121.5 142.35 122.14 141.53 122.57 140.98C121.63 140.28 120.79 139.64 119.99 139.04C119.2 139.14 118.43 139.2 117.71 139.21C118.54 140.65 119.44 142.13 120.37 143.79ZM124.12 125.33C124.25 122.89 124.3 121.53 123.92 120.21C123.57 122.19 123.16 124.18 122.67 126.16L124.12 125.33ZM121.27 131.28C121.74 131.17 122.22 131.04 122.71 130.9C123.15 129.93 123.51 128.91 123.76 127.89L122.14 128.22C121.87 129.24 121.58 130.26 121.27 131.28ZM60.5 43.37C58.24 42.62 55.93 42.3 56.51 45.74C56.73 47.09 56.69 48.17 56.42 49.08C58.15 50.41 59.83 51.78 61.47 53.18C61.87 52.13 62.24 51.16 62.55 50.35C60.69 49.95 60.69 49.95 60.5 43.37ZM93.44 114.95C94.08 116.56 94.64 118.22 95.14 119.97C95.61 119.49 96.1 119 96.6 118.49C95.83 116.25 95.03 114.05 94.18 111.89C93.91 112.92 93.63 113.94 93.44 114.95ZM92.04 107.05C92.07 107.03 92.11 107.01 92.15 106.99C91.61 105.77 91.07 104.55 90.51 103.35C88.79 103.12 87.57 103.28 86.63 103.9C88.23 105.59 89.65 107.49 90.87 109.59C91.69 109.76 92.54 109.92 93.43 110.1C92.62 108.32 92.26 107.55 92.04 107.05ZM109.75 121.46C109.03 122.55 108.92 124.39 109.23 126.44C109.63 125.32 110 124.19 110.33 123.06C110.14 122.53 109.95 122 109.75 121.46ZM114.71 69.77C115.03 69.42 114.21 67.3 113.98 67.31C113.16 67.35 112.34 67.46 111.45 67.6C112.04 68.75 112.61 69.92 113.15 71.11C113.72 70.69 114.26 70.27 114.71 69.77ZM112.77 54.77C108.62 54.3 106.47 55.71 106.12 58.82C106.45 59.29 106.81 59.74 107.13 60.22C110.44 60.21 110.34 56.25 112.77 54.77ZM79.89 45.01C77.98 47.51 76.28 49.71 74.59 51.92C74.7 52.17 74.8 52.43 74.91 52.69C77.6 51.26 80.29 49.85 82.97 48.42C79.29 49.6 80.79 45.41 79.89 45.01ZM51.34 73.73C53.78 72.93 56.21 72.13 58.64 71.33C58.07 70.93 57.51 70.53 56.91 70.14C54.85 70.73 52.79 71.32 50.74 71.92C50.94 72.52 51.14 73.13 51.34 73.73ZM97.53 133.03C97.53 133.06 97.54 133.08 97.54 133.1C97.59 133.08 97.64 133.06 97.69 133.03L97.53 133.03ZM74.08 113.59C74.33 113.32 74.57 113.05 74.82 112.77C73.07 111.17 71.33 109.56 68.97 107.39C68.38 112.83 71.21 113.23 74.08 113.59ZM31.89 81.02C31.94 80.52 32 80.02 32.05 79.52C29.6 79.37 27.14 79.21 24.69 79.05C24.75 79.12 24.79 79.18 24.85 79.25C25.28 79.75 25.53 80.25 25.69 80.59L25.82 80.87L26.01 81.21C27.92 81.55 29.92 81.15 31.89 81.02ZM4.51 67.87C6.6 68.14 7.45 67.29 7.96 66.13C7.49 65.06 7.04 63.97 6.61 62.87C5.86 64.66 5.2 66.23 4.51 67.87ZM49.35 130.56C49.68 131.05 50.01 131.54 50.34 132.03C51.21 132.55 52.09 133.06 52.98 133.55C52.12 132.27 51.26 130.99 50.41 129.71C50.05 129.99 49.7 130.27 49.35 130.56ZM160.6 120.05C161.12 121.97 161.64 123.9 162.16 125.82C162.53 125.73 162.89 125.64 163.26 125.54C164.2 123.27 163.59 121.37 160.6 120.05ZM74.17 15.89C72.24 13.66 70.3 11.43 68.36 9.2C68.07 9.48 67.78 9.75 67.49 10.03C69.51 12.2 71.52 14.36 73.53 16.53C73.75 16.32 73.96 16.1 74.17 15.89ZM101.39 33.91C100.7 34.93 100.06 35.87 98.76 37.79C101.7 37.52 103.56 37.35 105.02 37.22C103.76 36.07 102.63 35.04 101.39 33.91Z" />
		<path id="Path 2" fill-rule="evenodd" class="shp0" d="M158.86 86.76C158.52 88.52 158.07 90.21 157.55 91.85C157.69 91.92 157.84 92.01 158 92.12C157.74 92.32 157.5 92.53 157.28 92.74C156.9 93.86 156.48 94.97 156.02 96.05C156.06 96.23 156.1 96.42 156.17 96.62C156.42 97.3 155.86 97.86 155.15 97.88C154.9 98.37 154.68 98.87 154.42 99.36L158.93 98.88L157.42 104.19C155.92 109.44 153.36 113.93 149.66 117.73L148.15 121.32C144.73 129.51 129.84 137.81 119.99 139.04C119.09 138.36 118.24 137.72 117.39 137.08C117.83 136.64 118.27 136.2 118.71 135.76C120.05 135.4 121.61 133.34 122.71 130.9C126.18 129.88 130.05 128.06 133.38 125.96L123.76 127.89C123.94 127.14 124.07 126.39 124.11 125.68C124.11 125.56 124.12 125.45 124.12 125.33L137.43 117.73C142.3 114.95 145.77 111.63 148.06 107.51L137.9 108.56L143.92 101.48C147.91 96.8 150.33 91.68 151.53 85.36C151.61 84.97 151.66 84.58 151.73 84.19C151.8 84.21 151.87 84.24 151.93 84.26C152.58 84.45 153.19 83.98 152.98 83.4C152.47 81.99 153.14 81.09 154.28 80.21C153.58 79.73 153.15 79.76 152.92 80.59C152.79 81.06 152.6 81.51 152.4 81.96C152.28 82.22 152.15 82.42 152 82.56C152.44 79.53 152.65 76.49 152.64 73.39C146.91 77.28 140.62 80 133.88 81.49C133.59 81.56 133.3 81.63 133.02 81.7C133.02 81.62 133.02 81.54 133.06 81.48C133.7 80.44 134.69 80.16 136 80.75C136.11 80.33 136.4 79.88 136.29 79.57C136.15 79.18 135.72 78.87 135.36 78.58C135.12 78.38 134.8 78.28 134.52 78.13C134.48 78.22 134.44 78.3 134.4 78.39C134.71 78.77 135.03 79.16 135.3 79.49C134.51 80.48 133.18 78.83 132.81 80.3C132.66 80.88 131.93 81.31 131.98 81.96C129.71 82.56 127.46 83.32 125.1 84.11C124.4 84.35 123.7 84.58 123 84.81C123.14 85.66 123.27 86.49 123.4 87.32C124.03 91.24 124.66 95.28 124.98 99.37C125.2 99.33 125.42 99.28 125.64 99.26C126.38 99.2 126.9 99.04 126.75 98.11C126.72 97.94 126.98 97.72 127.1 97.52C127.23 97.32 127.51 97.05 127.45 96.94C127.33 96.68 127.07 96.44 126.81 96.29C126.32 96.02 125.79 95.83 125.28 95.6C125.35 95.46 125.41 95.33 125.48 95.19C125.9 95.35 126.32 95.52 127.2 95.85C125.53 94.08 127.43 93.38 127.72 92.25C128.24 90.17 130.11 92.5 131.24 91.11C130.85 90.63 130.4 90.09 129.96 89.55C130.01 89.43 130.07 89.31 130.13 89.19C130.53 89.39 130.98 89.54 131.33 89.82C131.82 90.23 132.43 90.66 132.62 91.21C132.78 91.65 132.38 92.29 132.22 92.87C130.37 92.05 128.97 92.45 128.07 93.91C127.91 94.17 128.01 94.61 128.03 94.96C128.07 96.07 128.12 97.18 128.19 98.29C128.22 98.8 128.29 99.31 128.36 99.98L125.02 99.98C125.05 100.33 125.09 100.69 125.11 101.05C125.45 107.36 125.05 113.77 123.92 120.21C123.47 118.65 122.43 117.13 120.21 113.9C120.52 117.07 121.06 120.22 122.09 123.2C122.97 125.78 122.04 128.65 119.56 129.45C117.26 130.19 114.99 133.65 115.88 135.67C116.41 136.87 117.03 138.02 117.71 139.21C117.69 139.21 117.66 139.21 117.63 139.21C116.91 139.21 116.22 139.17 115.56 139.08L112.09 138.6C111.93 138.91 111.79 139.22 111.64 139.52C111.21 140.4 110.78 141.27 110.36 142.15C107.59 147.94 102.73 151 96.32 151C95.95 151 95.59 150.99 95.21 150.97C86.34 150.51 75.91 149.65 65.82 146.8C48.81 141.99 34.68 132.18 23.84 117.65C23.61 117.35 23.4 117.04 23.18 116.72L22.48 115.68L22.55 114.31L22.55 110.27C17.48 105.85 13.47 100.84 10.43 95.18C8.95 92.42 7.74 89.56 6.57 86.8C6.05 85.57 5.53 84.34 4.98 83.13L3.95 80.81L7.34 77.38L9.24 77.44L14.49 78.01C11.96 74.32 9.8 70.36 7.96 66.13C8.45 65 8.6 63.57 9.22 62.61C9.35 62.41 8.05 61.29 7.52 60.7C7.2 61.47 6.9 62.18 6.61 62.86C4.75 58.03 3.28 52.86 2.21 47.27C1.42 43.13 0.85 38.85 0.48 34.43C0.71 34.57 0.92 34.67 1.06 34.63C1.84 34.39 2.9 33.54 2.99 32.84C3.56 28.2 2.25 24.1 0 19.97C0.06 15.69 0.27 11.27 0.66 6.66L1.24 -0.07L7.14 4.39C7.56 4.7 7.93 4.98 8.29 5.28C15.37 11.17 24.9 18.36 36.16 22.33C36.08 22.51 36.01 22.69 35.93 22.91C37.31 23.19 38.67 23.46 40.34 23.8C40.32 23.75 40.31 23.71 40.28 23.67C46.34 25.52 52.62 27.02 58.73 28.45C65.96 30.15 72.49 32.47 78.48 35.43L78.48 36.42C79.07 38.07 79.83 40.28 80.67 42.46C80.8 42.81 81.29 43.23 81.63 43.25C82.05 43.27 82.62 43.01 82.91 42.68C83.63 41.87 83.78 40.05 83.56 38.18C86.63 40 89.58 42 92.35 44.22C97.69 48.49 102.26 53.39 106.12 58.82C106.07 59.22 106.05 59.65 106.06 60.11C106.46 60.19 106.81 60.22 107.13 60.21C108.72 62.57 110.13 65.05 111.45 67.6C110.42 67.78 109.3 68 107.98 68.22C109.13 70.06 109.81 71.14 110.8 72.72C111.62 72.13 112.42 71.63 113.15 71.11C114.42 73.91 115.57 76.8 116.52 79.82C117.37 78.88 118.43 78.45 118.94 78.3C120.2 77.9 121.46 77.47 122.72 77.05C125.79 76.01 128.97 74.94 132.27 74.21C139.71 72.56 146.26 69.33 152.28 64.34C152.28 64.34 152.28 64.34 152.28 64.34C152.57 64.1 152.85 63.88 153.21 63.61L153.71 63.22C153.62 63.87 153.16 64.21 152.28 64.34C152.93 64.63 153.57 64.92 154.22 65.21C154.35 65.42 154.48 65.63 154.61 65.84C154.9 65.07 155.19 64.31 155.39 63.77C154.93 63.67 154.88 63.65 154.83 62.35L158.99 59.14L159.43 63.39C159.22 63.67 159 63.94 158.8 64.21C158.83 64.29 158.86 64.36 158.89 64.43L159.5 64.11L159.68 65.8C160.44 73.06 160.17 79.91 158.86 86.76ZM154.99 69.47C154.94 69.34 154.9 69.2 154.85 69.06C153.92 69.33 152.99 69.6 152.06 69.87C152.11 70.04 152.17 70.21 152.23 70.38C153.15 70.08 154.07 69.78 154.99 69.47ZM146.77 72.02C146.01 71.97 145.25 71.92 144.49 71.87C144.47 72.01 144.46 72.14 144.45 72.27C145.16 72.7 145.96 72.49 146.73 72.44C146.74 72.3 146.76 72.16 146.77 72.02ZM143.24 73.41C143.18 72.76 143.22 72.08 143.09 72.04C142.62 71.92 142.09 72.01 141.58 72.02C141.59 72.12 141.6 72.23 141.6 72.33C142.03 72.61 142.47 72.9 143.24 73.41ZM158.79 74.49C158.96 74.87 159.14 75.23 159.31 75.61C159.46 75.96 159.6 76.32 159.75 76.68C160.08 74.96 159.75 74.32 158.79 74.49ZM115.29 136.84C113.68 132.37 112.06 127.87 110.33 123.06C113.89 110.97 113.92 98.29 110.41 85.28C106.51 70.84 98.87 58.98 87.7 50.04C79.21 43.25 69.19 38.56 57.06 35.72C49.6 33.97 41.92 32.17 34.51 29.67C30.28 28.25 26.31 26.41 22.6 24.37C22.99 23.92 23.47 23.48 24.03 23.05C22.86 22.24 22.15 22.29 21.77 23.68C21.75 23.74 21.73 23.81 21.71 23.87C16.45 20.91 11.72 17.55 7.62 14.33C7.06 25.88 7.69 36.25 9.54 45.87C12.12 59.31 17.08 70.16 24.69 79.05C24.45 79.04 24.21 79.02 23.97 79.01C23.92 79.48 23.87 79.95 23.82 80.42C24.53 80.84 25.27 81.08 26.01 81.21L29.15 87.08L14.1 85.46C15.03 87.62 15.94 89.67 17 91.65C21.75 100.51 29.37 107.57 40.31 113.22L42.71 114.46C41.95 114.68 41.25 114.87 41.01 115.31C40.5 116.24 40.66 117.55 40.54 118.7C40.92 118.74 41.25 118.81 41.57 118.9L40.38 121.18L35.68 120.17C40.1 124.84 45 128.79 50.34 132.03C52.09 134.61 53.84 137.2 55.59 139.78C55.95 139.54 56.31 139.3 56.67 139.06C55.44 137.22 54.21 135.39 52.98 133.55C57.14 135.83 61.55 137.7 66.22 139.14L63.46 135.03L90 132.69C89.89 131.8 89.78 130.91 89.65 130.03C88.8 124.36 87.55 119.83 85.7 115.76C82.37 108.45 76.69 103.97 68.33 102.08C63.39 100.96 58.21 100.17 53.21 99.4L49.97 98.91C46.68 98.39 43.29 97.96 40.01 97.54C38.48 97.35 36.96 97.16 35.44 96.95L31.97 96.5L32.5 88.83L56.79 90.06C56.58 89.5 56.39 88.95 56.24 88.52L56.24 84.67C56.42 84.67 56.6 84.67 56.79 84.66C56.79 85.04 56.7 85.44 56.8 85.79C56.95 86.28 57.14 86.84 57.5 87.17C58.01 87.65 58.37 89.11 58.28 90.14L74.09 90.94C73.75 89.97 73.39 89.05 73 88.17C70.03 81.54 65.28 76 58.64 71.33C59.46 71.06 60.28 70.79 61.1 70.52C60.94 70.04 60.78 69.55 60.61 69.06C59.38 69.42 58.14 69.78 56.91 70.13C55.7 69.35 54.44 68.59 53.12 67.85C47.53 64.77 41.24 62.4 33.88 60.63C33.49 60.53 33.12 60.41 32.75 60.28L28.61 58.93L31.19 52.83L33.85 52.66L42.16 52.92L23.25 36.91L26.68 31.25L29.99 32.49C30.41 32.65 30.84 32.81 31.24 33.02C40.46 37.83 48.83 43.18 56.43 49.08C55.88 50.92 54.31 51.94 51.53 52.35C53.82 53.38 56.11 54.42 58.4 55.45C58.85 56.19 59.31 56.92 59.76 57.66C60.35 56.11 60.94 54.57 61.47 53.18C72.56 62.62 81.83 73.41 89.45 85.74C94.02 93.13 97.89 100.93 101.15 109.25C101.55 109.26 102.06 109.38 102.78 109.61C102.39 109.83 102.13 109.98 101.79 110.17C101.85 110.3 101.94 110.49 102.14 110.92C102.01 110.89 101.9 110.87 101.78 110.85C101.91 111.2 102.06 111.55 102.19 111.9C102.25 111.62 102.33 111.33 102.4 111.04C103.83 111.73 104.37 112.96 104.66 114.41C104.09 113.87 103.52 113.34 103.01 112.87C102.89 112.99 102.78 113.1 102.66 113.22C104.62 118.62 106.34 124.24 107.81 130.14C108.12 129.42 108.41 128.7 108.69 127.97C108.88 127.46 109.06 126.95 109.24 126.44C109.88 130.57 112.32 135.54 115.29 136.84ZM74.56 88.27C75.17 89.6 75.81 90.9 76.39 92.23C76.93 93.47 77.43 94.75 77.95 96.01C79.11 89.92 77.95 87.68 74.56 88.27ZM55.71 58.07L54.77 60.29C55.43 60.62 56.08 60.97 56.72 61.33C59.9 63.08 62.79 64.98 65.4 67.01C62.34 63.9 59.12 60.92 55.71 58.07ZM96.6 118.49C96.74 118.35 96.88 118.21 97.02 118.07C99.08 120 101.42 122.18 103.74 124.36C102.58 118.43 100.34 113.41 94.5 110.61C94.4 111.04 94.29 111.46 94.18 111.89C93.53 110.23 92.85 108.6 92.15 106.99C93.45 106.24 94.5 105.63 96.07 104.74C93.76 104.02 91.96 103.55 90.51 103.35C88.28 98.62 85.83 94.06 83.11 89.66C81.79 87.52 80.42 85.44 78.99 83.39C79.27 83.96 79.54 84.54 79.8 85.12C80.66 87.02 81.3 88.93 81.98 90.94C82.28 91.83 82.58 92.74 82.92 93.68L84.8 98.95L80.11 98.71C82.55 100.14 84.72 101.88 86.63 103.9C85.49 104.65 84.75 106.04 84.02 108.22C86.22 108.66 88.41 109.1 90.87 109.59C91.45 110.58 92 111.6 92.49 112.68C92.83 113.42 93.14 114.18 93.44 114.95C93.34 115.5 93.26 116.06 93.24 116.61C93.18 117.95 94 119.33 94.42 120.7C94.66 120.46 94.9 120.21 95.14 119.97C95.92 122.71 96.54 125.66 97.02 128.93C97.23 130.28 97.38 131.65 97.53 133.03L86.78 133.03C88.99 135.91 92.63 135.88 97.54 133.1C97.56 133.25 97.58 133.4 97.6 133.55L98.16 138.37C99.36 138.25 100.63 137.97 101.88 137.66C101.49 135.84 101.09 134.02 100.64 132.21C99.46 127.45 98.1 122.9 96.6 118.49ZM86.62 141.54C85.34 140.52 83.79 139.79 82.26 139.14C82.09 139.06 81.14 140.09 81.08 140.65C81.05 141.06 81.83 141.68 82.36 141.99C83.58 142.68 84.88 143.24 86.68 144.12C86.68 143.18 87.04 141.88 86.62 141.54ZM13.76 80.61C15.29 81.63 16.82 82.64 19.55 84.44C19.33 82.15 19.48 79.73 19.02 79.61C17.35 79.16 15.48 79.49 13.68 79.53C13.71 79.89 13.74 80.25 13.76 80.61ZM7.73 9.89C8.92 10.59 10.23 10.26 11.51 10.17C11.53 9.94 11.56 9.7 11.58 9.47C10.32 9.39 9.06 9.31 7.8 9.23C7.78 9.45 7.75 9.67 7.73 9.89ZM31.28 25.43C31.39 25.3 31.51 25.18 31.62 25.05C30.8 24.29 29.99 23.54 28.88 22.52C28.61 25.07 29.93 25.26 31.28 25.43ZM40.25 26.84C40.23 27.47 40.61 28.12 40.81 28.76C41.2 28.36 41.6 27.96 42.03 27.53C42.99 28.44 44.08 29.46 45.18 30.48C44.63 27.7 43.58 25.35 40.84 24.03C40.63 24.99 40.3 25.91 40.25 26.84ZM5.73 11.77C5.62 10.7 5.7 9.56 5.48 9.51C4.7 9.3 3.82 9.45 2.98 9.47C2.99 9.64 3 9.81 3.02 9.98C3.73 10.45 4.45 10.93 5.73 11.77ZM158.66 81.65C158.73 81.57 158.79 81.5 158.86 81.42C158.37 80.96 157.88 80.51 157.21 79.9C157.04 81.43 157.84 81.55 158.66 81.65ZM133.25 59.25C132.48 57.87 133.57 56.97 133.92 55.61C135.24 57.68 136.11 59.65 135.83 61.95C135.79 62.23 135.37 62.57 135.06 62.66C134.9 62.71 134.48 62.35 134.36 62.09C133.96 61.16 133.74 60.13 133.25 59.25ZM176 98.44C175.07 97.57 174.14 96.7 173.32 95.93C172.95 96.3 172.62 96.64 172.28 96.98C172.11 96.44 171.79 95.89 171.81 95.35C171.85 94.56 172.13 93.77 172.31 92.96C174.64 94.08 175.54 96.08 176 98.44ZM171.89 92.76C170.47 92.48 169.3 92.24 168.13 92.01C168.87 89.82 169.61 89.58 172.94 90.62C172.3 90.99 171.87 91.23 171.33 91.54C171.42 91.74 171.56 92.05 171.89 92.76ZM167.19 62.03C167.89 62.69 168.31 65.18 167.69 65.88C167.58 66.01 167.35 66.11 167.18 66.1C167.05 66.09 166.85 65.93 166.8 65.79C166.46 64.92 166.16 64.04 165.93 63.38L165.93 59.54C166.11 59.53 166.29 59.53 166.48 59.53C166.48 59.9 166.39 60.31 166.5 60.65C166.64 61.14 166.83 61.7 167.19 62.03ZM167.72 68.16C166.65 68.73 165.58 69.3 164.5 69.87C164.46 69.76 164.42 69.66 164.37 69.56C165.05 68.68 165.73 67.8 166.49 66.81C166.85 66.97 166.25 68.63 167.72 68.16ZM140.12 81C140.11 80.86 140.1 80.71 140.09 80.57C140.81 80.55 141.55 80.42 142.22 80.6C142.4 80.65 142.34 81.62 142.43 82.53C141.34 81.81 140.73 81.41 140.12 81ZM165.72 87.14C165.51 86.63 165.31 86.13 165.09 85.63C164.86 85.1 164.61 84.58 164.36 84.05C165.71 83.82 166.18 84.71 165.72 87.14ZM162.14 91.68C163.08 92.54 163.77 93.18 164.47 93.82C164.37 93.93 164.27 94.04 164.17 94.15C163.03 94.01 161.9 93.85 162.14 91.68ZM144.14 80.92C144.15 80.73 144.18 80.54 144.19 80.36L147.42 80.56C147.39 80.76 147.37 80.96 147.35 81.16C146.26 81.24 145.14 81.52 144.14 80.92ZM163.95 55.45C163.15 54.58 162.35 53.72 161.55 52.86C161.66 52.75 161.78 52.64 161.9 52.53C162.67 53.42 163.44 54.31 164.21 55.19C164.12 55.28 164.04 55.36 163.95 55.45ZM62.62 118.1C64.95 119.21 65.85 121.21 66.31 123.58C65.38 122.71 64.45 121.84 63.63 121.07C63.27 121.44 62.93 121.78 62.59 122.12C62.43 121.58 62.1 121.02 62.12 120.49C62.16 119.69 62.44 118.91 62.62 118.1ZM62.2 117.89C60.78 117.61 59.62 117.38 58.45 117.14C59.18 114.96 59.92 114.71 63.25 115.75C62.61 116.12 62.18 116.37 61.64 116.68C61.73 116.88 61.87 117.18 62.2 117.89ZM55.4 110.77C55.17 110.24 54.92 109.72 54.67 109.19C56.03 108.96 56.49 109.85 56.03 112.27C55.82 111.77 55.62 111.27 55.4 110.77ZM52.44 116.82C53.38 117.68 54.08 118.32 54.78 118.96C54.68 119.07 54.58 119.18 54.48 119.29C53.34 119.14 52.21 118.98 52.44 116.82ZM54.26 80.58C53.46 79.72 52.66 78.86 51.86 77.99C51.97 77.88 52.09 77.77 52.2 77.66C52.98 78.55 53.75 79.44 54.52 80.33C54.44 80.41 54.35 80.5 54.26 80.58ZM97.19 93.47C96.96 93.7 96.76 93.91 96.55 94.11C96.45 93.78 96.25 93.44 96.26 93.11C96.28 92.63 96.45 92.15 96.57 91.65C98 92.33 98.54 93.56 98.83 95.01C99.05 95.11 98.68 96.13 99.58 95.84C98.92 96.19 98.27 96.54 97.61 96.89C97.58 96.82 97.56 96.76 97.53 96.7C97.94 96.16 98.36 95.62 98.83 95.01C98.26 94.48 97.69 93.94 97.19 93.47ZM96.31 91.53C95.44 91.35 94.72 91.21 94.01 91.07C94.46 89.73 94.91 89.57 96.95 90.21C96.56 90.44 96.3 90.59 95.97 90.78C96.02 90.9 96.11 91.09 96.31 91.53ZM93.42 72.69C93.86 73.09 94.11 74.62 93.73 75.05C93.66 75.12 93.53 75.19 93.42 75.18C93.34 75.18 93.22 75.08 93.19 74.99C92.98 74.46 92.79 73.92 92.65 73.51L92.65 71.16C92.76 71.16 92.88 71.16 92.99 71.15C92.99 71.38 92.94 71.63 93 71.84C93.09 72.14 93.21 72.48 93.42 72.69ZM93.75 76.45C93.09 76.8 92.44 77.14 91.78 77.49C91.75 77.43 91.73 77.37 91.7 77.3C92.12 76.76 92.53 76.22 93 75.62C93.22 75.71 92.85 76.74 93.75 76.45ZM92.52 88.08C92.4 87.77 92.27 87.46 92.14 87.15C92 86.83 91.84 86.51 91.69 86.19C92.52 86.04 92.81 86.59 92.52 88.08ZM90.18 66.86L91.6 68.5C91.55 68.55 91.5 68.6 91.44 68.65C90.95 68.12 90.46 67.59 89.97 67.06C90.04 67 90.11 66.93 90.18 66.86ZM99.25 92.08C99.69 92.49 99.94 94.02 99.56 94.44C99.49 94.52 99.36 94.58 99.25 94.58C99.17 94.57 99.05 94.47 99.02 94.38C98.81 93.85 98.63 93.31 98.48 92.91L98.48 90.56C98.6 90.55 98.71 90.55 98.82 90.55C98.82 90.78 98.77 91.03 98.83 91.24C98.92 91.54 99.04 91.88 99.25 92.08ZM97.27 88.05C96.78 87.52 96.29 86.99 95.8 86.46C95.87 86.39 95.94 86.32 96.01 86.26C96.48 86.8 96.96 87.35 97.43 87.89C97.38 87.94 97.32 88 97.27 88.05Z" />
	</g>
</svg>