<svg xmlns="http://www.w3.org/2000/svg" viewBox="0 0 197 149" width="197" height="149">
	<defs>
		<clipPath clipPathUnits="userSpaceOnUse" id="cp1">
			<path d="M0 0L197 0L197 149L0 149Z" />
		</clipPath>
	</defs>
	<style>
		tspan { white-space:pre }
		.shp0 { fill: #e55028 } 
		.shp1 { fill: #f9b43b } 
		.shp2 { fill: #8bc334 } 
	</style>
	<g id="Page 1" clip-path="url(#cp1)">
		<path id="Path 1" class="shp0" d="M140.2 66.12C138.29 68.68 135.15 70.25 131.41 70.42C126.03 70.67 123.42 66 122.96 56.07C122.57 47.62 124.36 31.44 124.07 25.17L123.86 20.69C122.07 20.77 113.74 55.75 109.23 61.94C107.9 63.95 105.66 65.78 102.9 65.91C96.55 66.2 92.18 59.07 91.66 48.01C91.33 40.76 92.65 27.37 91.95 12.14C91.87 10.49 91.54 9.83 91.24 9.84C85.26 10.12 71.93 50.34 71.29 70.44C71.2 73.37 71.73 78.28 72.45 80.87C65.24 80.38 57.52 80.29 57.19 73.04C56.88 66.39 60.34 52.23 64.47 39.68C67.36 30.94 78.55 0.92 90.35 0.38C103.43 -0.23 101.9 23.43 102.94 45.76C103.11 49.35 103.23 51.97 103.69 53.89C115.96 18.28 118.25 7.77 125.57 7.43C129.75 7.23 133 12.7 133.34 20.02C133.54 24.28 133.49 32.89 133.73 38.12C134.82 61.66 137.25 60.79 140.2 66.12ZM180.2 31.75C180.1 36.47 167.84 55.67 156.19 55.43C149.79 55.3 146.59 51.15 146.7 45.7C146.8 40.97 149.08 36.21 150.82 33.11C139.65 31.2 138.3 26.01 138.36 23.1C138.48 17.27 144.07 14.33 147.64 14.4C150.48 14.46 151.3 16.8 151.27 18.34C151.23 20.08 150.47 22.18 149.24 24.7C154.75 26.05 163.78 26.16 163.69 30.46C163.61 34.39 157 40.88 156.89 46.2C156.85 48.16 157.7 49.27 159.23 49.3C165.34 49.43 173.2 35.61 176.76 28.83C179.3 29.32 180.23 30.29 180.2 31.75Z" />
		<path id="Path 2" class="shp1" d="M188.07 83.25C188 86.69 179.06 100.68 170.57 100.51C165.91 100.41 163.58 97.39 163.66 93.41C163.73 89.96 165.4 86.5 166.66 84.24C158.52 82.85 157.54 79.06 157.58 76.95C157.67 72.7 161.74 70.56 164.34 70.61C166.41 70.65 167.01 72.36 166.99 73.48C166.96 74.75 166.4 76.28 165.51 78.11C169.52 79.1 176.1 79.18 176.04 82.31C175.98 85.18 171.16 89.9 171.08 93.78C171.05 95.21 171.67 96.02 172.79 96.04C177.24 96.13 182.97 86.06 185.56 81.12C187.41 81.48 188.09 82.19 188.07 83.25ZM189.43 118.18C189.37 120.9 182.34 131.92 175.65 131.78C171.97 131.7 170.14 129.32 170.2 126.19C170.26 123.48 171.57 120.74 172.57 118.97C166.15 117.88 165.38 114.89 165.41 113.22C165.48 109.88 168.69 108.19 170.74 108.23C172.37 108.26 172.84 109.61 172.83 110.49C172.8 111.49 172.36 112.69 171.66 114.14C174.82 114.92 180.01 114.98 179.96 117.45C179.91 119.7 176.11 123.43 176.05 126.48C176.03 127.61 176.51 128.24 177.39 128.26C180.9 128.33 185.41 120.4 187.46 116.51C188.92 116.8 189.45 117.35 189.43 118.18Z" />
		<path id="Path 3" class="shp2" d="M177.83 51.73C177.91 47.77 182.23 44.85 187.36 44.96C192.58 45.06 196.59 47.57 196.53 50.76C196.42 55.89 191.19 61.01 185.96 60.91C180.74 60.8 177.76 54.73 177.83 51.73Z" />
		<path id="Path 4" class="shp1" d="M101.81 137.33C101.86 134.84 104.56 133.02 107.76 133.09C111.03 133.15 113.54 134.72 113.5 136.72C113.43 139.92 110.16 143.12 106.89 143.06C103.62 142.99 101.77 139.2 101.81 137.33Z" />
		<path id="Path 5" class="shp0" d="M60.44 93.97C60.49 91.49 63.19 89.66 66.39 89.73C69.66 89.8 72.17 91.36 72.13 93.36C72.06 96.57 68.79 99.77 65.52 99.7C62.25 99.63 60.4 95.84 60.44 93.97Z" />
		<path id="Path 6" class="shp1" d="M121.06 112.35C120.93 118.33 115.93 125.72 103.85 125.47C96.96 125.33 92.06 122.05 92.13 118.58C92.15 117.56 92.83 116.62 93.92 115.98C95.75 117.1 98.01 118.28 102.31 118.37C109.08 118.51 112.22 113.85 112.32 109.18C112.41 104.63 109.67 101.34 105.6 101.14C102.13 101.06 98.96 101.06 96.6 102.39C94.63 101.69 93.7 100.29 93.73 98.98C93.78 96.46 95.84 95.49 98.47 95.54C99.61 95.56 100.8 95.77 101.99 96.09C106.21 94.62 112.47 90.08 112.6 83.62C112.72 78.12 108.06 74.66 100.34 74.51C98.72 74.47 97.04 74.62 95.3 74.82C95.71 75.49 95.93 76.15 95.92 76.81C88.14 91.26 86.75 121.16 92.12 130.67C91.33 131.56 87.49 131.96 85.75 131.92C81.44 131.83 78.68 129.26 78.23 125.06C76.52 111.98 80.89 91.59 84.63 81.49C85.14 79.88 85.71 78.58 86.33 77.39C83.49 78.59 81.01 80.16 79.18 81.85C77.21 81.28 75.86 79.99 75.89 78.73C75.89 78.32 76.02 77.96 76.27 77.54C77.64 75.24 87.93 69.34 101.52 69.62C119.17 69.98 124.04 77.99 123.93 83.25C123.77 90.85 115.58 96.19 109.44 97.92C117.24 99.88 121.18 106.31 121.06 112.35ZM168.54 84.21C168.49 86.68 159.18 102.7 150.26 102.52C146.62 102.44 144.32 100.44 143.56 96.26C140.96 99.4 137.45 102.32 133.54 102.24C128.99 102.14 126.77 99.24 126.88 93.77C126.93 91.56 127.48 87.15 127.57 82.66C127.63 79.73 127.53 78.23 127.12 76.07C129.01 75.79 130.84 75.5 132.66 75.54C135.85 75.6 137.18 77.19 137.11 80.83C137.06 82.98 136.37 88.17 136.3 91.75C136.25 94.23 136.68 95.21 137.4 95.22C138.37 95.24 140.95 93.6 143.43 89.82C143.68 87.02 144.07 84.1 144.12 81.63C144.17 79.29 144.01 77.52 143.64 76.48C144.75 76.3 146.05 76.14 147.23 76.16C151.39 76.25 153.23 78.43 153.13 83.57C153.09 85.26 152.22 89.74 152.16 92.86C152.09 95.85 152.45 97.29 153.63 97.31C155.84 97.36 162.18 89.55 165.27 81.87C166.84 81.44 168.58 82.19 168.54 84.21Z" />
		<path id="Path 7" fill-rule="evenodd" class="shp1" d="M154.4 122.15C149.89 122.31 145.4 123.98 141.48 126.45L141.45 127.87C141.29 135.66 138.12 149.17 129.74 149C126.26 148.93 124.34 146.83 124.42 143.2C124.53 137.57 129.02 131.58 134.8 127.05C134.8 126.7 134.81 126.41 134.77 126.16C133.07 127.89 131.19 128.74 129.18 128.69C125.84 128.63 123.98 126.33 124.06 122.46C124.18 116.58 130.52 110.98 136.6 111.1C138.6 111.14 140.59 111.97 140.56 113.59C140.54 114.81 139.25 115.57 136.59 116.2C136.26 115.36 135.83 115.01 135.39 115C133.28 114.96 130.64 119.56 130.57 122.69C130.54 124.07 130.93 124.61 131.51 124.62C132.79 124.65 134.91 121.7 134.23 119.05C136.61 117.52 137.25 117.54 138.18 117.56C140.24 117.6 141.14 118.99 141.4 122.82C145.22 120.89 149.16 119.74 152.49 119.81C153.72 119.84 154.78 120.59 154.4 122.15ZM134.44 132.48C131.23 136.23 129.18 140.51 129.1 144.48C129.08 145.51 129.31 146.19 129.9 146.21C132.15 146.25 133.83 138.44 134.44 132.48Z" />
		<path id="Path 8" fill-rule="evenodd" class="shp1" d="M175.45 121.41C175.4 123.76 167.2 136.09 158.09 135.91C151.18 135.76 146.28 130.86 146.42 124.15C146.55 117.68 150.78 112.62 156.07 112.73C159.84 112.81 162.04 115.25 161.96 119.27C161.87 123.58 158.53 126.7 155.59 128.65C156.54 130.24 157.9 131.15 159.56 131.18C163.33 131.26 168.38 126.66 172.19 119.82C174.17 119.23 175.48 119.79 175.45 121.41ZM154.11 122.05C154.09 122.98 154.12 123.86 154.25 124.65C155.8 123.06 157.02 121.23 157.06 118.97C157.09 117.9 156.71 117.15 156.27 117.14C155.34 117.12 154.16 119.55 154.11 122.05Z" />
		<path id="Path 9" class="shp0" d="M0.01 59.05L0.01 59.05C0 59.06 0 59.06 0 59.06L0.01 59.05ZM33.18 103.32C33.86 102.65 34.53 101.97 35.39 101.11C35.62 102.79 35.35 104.1 34.58 105.32C34.47 105.56 34.36 105.79 34.25 106.02C34.04 106.7 33.59 107.18 32.99 107.53C32.86 107.62 32.72 107.72 32.58 107.81C32.34 107.96 32.1 108.11 31.86 108.26C31.7 108.3 31.54 108.33 31.38 108.37C31.4 108.61 31.41 108.85 31.43 109.09C33.89 109.57 36.31 109.69 38.69 108.68C40.96 107.71 42.34 105.75 43.95 104.04C44.16 103.53 44.54 103.2 45 102.92C45.31 102.37 45.73 101.92 46.29 101.63C46.64 101.09 47.14 100.72 47.73 100.49C48.69 99.34 50.08 99.25 51.39 98.94C51.23 97.53 49.6 97.65 49.02 96.67C45.1 94.09 41.04 91.88 36.18 91.73C35.93 91.8 35.68 91.88 35.42 91.96C34.9 92.14 34.39 92.32 33.87 92.48C29.26 93.95 25.15 96.56 20.64 98.23C17.24 99.5 13.75 99.96 10.14 99.7C9.07 99.62 8.06 98.81 6.93 99.4C8.84 102.85 11.92 104.96 15.37 106.54C19.35 108.37 23.42 107.71 27.46 106.65C28.46 106.18 29.46 105.71 30.45 105.24C31.36 104.6 32.27 103.96 33.18 103.32Z" />
		<path id="Path 10" class="shp1" d="M64.85 116.81C62.5 116.02 60.1 115.4 57.69 116.32C54.29 117.63 50.89 118.9 47.43 120C44.65 120.89 41.84 121.59 38.86 121.3C38.22 121.23 37.44 120.86 36.84 121.77C42.47 124.07 47.85 127.12 54.26 125.46C56.07 124.73 57.88 124.01 59.68 123.28C59.82 123.19 59.95 123.11 60.08 123.03C62.61 121.77 64.98 120.21 67.62 119.18C67.45 117.51 65.84 117.52 64.85 116.81ZM44.03 70.53C42.39 69.61 40.27 69.65 38.51 69.76C36.11 69.89 33.79 69.9 31.45 69.43C31.26 69.34 31.08 69.25 30.9 69.16C31.55 70.98 32.89 72.29 34.17 73.68C34.99 74.57 35.81 74.76 36.95 74.84C39.93 75.06 42.81 74.07 45.78 74.25C46.23 74.36 46.68 74.48 47.13 74.59C46.5 72.93 45.54 71.36 44.03 70.53Z" />
		<path id="Path 11" class="shp0" d="M77.64 140.67C75.3 139.69 73.05 139.64 71.01 141.28C69.87 142.21 68.63 142.85 67.02 143.34C69.36 144.48 71.65 144.95 73.98 144.6C75.59 144.37 77.22 143.85 78.06 142.13C78.39 141.45 78.54 141.05 77.64 140.67Z" />
	</g>
</svg>