<svg xmlns="http://www.w3.org/2000/svg" viewBox="0 0 193 178" width="193" height="178">
	<defs>
		<clipPath clipPathUnits="userSpaceOnUse" id="cp1">
			<path d="M0 0L193 0L193 178L0 178Z" />
		</clipPath>
	</defs>
	<style>
		tspan { white-space:pre }
		.shp0 { fill: #e35028 } 
	</style>
	<g id="Page 1" clip-path="url(#cp1)">
		<path id="Path 1" class="shp0" d="M76.95 9.19C76.95 9.19 76.94 9.19 76.94 9.19L76.95 9.19ZM35.44 19.25C35.54 19.48 35.9 19.79 36.04 19.75C36.31 19.67 36.68 19.37 36.71 19.13C36.96 17.13 36.21 15.42 35.06 13.62C34.75 14.8 33.81 15.59 34.47 16.79C34.9 17.55 35.09 18.44 35.44 19.25ZM56.39 27.73C56.75 26.8 57.1 25.86 57.35 25.2C56.71 25.06 56.71 25.06 56.65 22.78C55.86 22.52 55.06 22.41 55.26 23.6C55.5 25.02 54.97 25.68 53.54 25.89C54.33 26.25 55.12 26.61 55.92 26.97C56.07 27.22 56.23 27.48 56.39 27.73ZM63.97 22.74C64.11 22.74 64.31 22.66 64.41 22.54C64.95 21.94 64.58 19.77 63.97 19.2C63.66 18.91 63.5 18.43 63.37 18C63.28 17.7 63.35 17.35 63.35 17.02C63.19 17.03 63.03 17.03 62.88 17.03L62.88 20.37C63.08 20.95 63.34 21.71 63.63 22.46C63.68 22.59 63.85 22.73 63.97 22.74ZM64.43 24.53C63.16 24.94 63.68 23.49 63.37 23.35C62.7 24.21 62.11 24.98 61.53 25.74C61.56 25.83 61.6 25.92 61.64 26.01C62.57 25.52 63.5 25.02 64.43 24.53ZM42.45 37.02C42.38 36.22 42.43 35.38 42.27 35.34C41.69 35.18 41.04 35.3 40.42 35.31C40.43 35.44 40.44 35.56 40.45 35.69C40.98 36.04 41.51 36.39 42.45 37.02ZM56.85 32.19C56.8 32.02 56.74 31.86 56.69 31.69C55.54 32.02 54.4 32.35 53.26 32.68C53.33 32.89 53.4 33.1 53.47 33.31C54.6 32.93 55.73 32.56 56.85 32.19ZM62.69 41.02C63.1 38.91 62.69 38.14 61.52 38.34C61.73 38.8 61.95 39.25 62.15 39.71C62.34 40.15 62.51 40.59 62.69 41.02ZM46.73 35.83C46.75 35.66 46.77 35.48 46.79 35.31C45.85 35.25 44.92 35.19 43.99 35.13C43.97 35.3 43.95 35.46 43.94 35.62C44.81 36.14 45.78 35.89 46.73 35.83ZM38.87 29.45C38.92 29.38 38.47 28.99 38.28 28.79C37.88 29.75 37.57 30.49 37.24 31.27C38.67 31.46 38.44 30.12 38.87 29.45ZM151.55 87.6C149.5 88.41 149.11 92.32 150.7 96.35C152.28 100.38 155.24 102.98 157.29 102.17C159.35 101.36 159.73 97.45 158.14 93.42C156.56 89.39 153.61 86.79 151.55 87.6ZM171.88 105.52C173.86 104.74 175.78 103.98 177.79 103.19C176.59 97.66 174.88 92.32 172.65 87.22C172.38 87.85 172.11 88.48 171.84 89.1C170.73 87.72 169.16 86.5 168.62 84.92C167.82 82.58 167.74 79.99 167.34 77.43C167.43 77.44 167.5 77.46 167.58 77.46C166.57 75.81 165.51 74.18 164.38 72.58C163.89 73.19 163.41 73.79 162.89 74.44C163.38 74.91 164.14 75.64 165.89 77.33C164.02 77.66 162.32 77.97 160.68 78.26C166.22 86.6 170 95.69 171.88 105.52ZM147.26 56.73C138.78 52.53 131.3 56.14 128.57 65.06C122.54 84.79 139.93 126.1 158.39 135.88C166.85 140.37 174.25 137.77 178.59 127.04C178.83 124.54 179.98 119.9 179.61 115.38C179.32 111.86 178.84 108.41 178.19 105.03C176.16 106.81 174.18 107.71 172.27 107.77C172.84 111.29 173.15 114.91 173.23 118.62C173.33 118.98 173.43 119.33 173.55 119.64C173.45 119.63 173.36 119.63 173.25 119.62C173.25 123.47 171.4 129.13 168.67 130.52C166.01 131.87 159.89 129.88 157.31 127.33C141.74 111.88 133.26 93.06 134.11 70.87C134.25 67.24 135.14 64.65 136.68 63.09C135.85 62.3 135.03 61.51 134.2 60.72C136.34 59.41 138.03 59.63 139.35 61.54C141.3 61.05 143.73 61.43 146.58 62.71C147.61 63.52 149.61 64.78 151.2 66.44C152.99 68.32 154.67 70.24 156.25 72.21C157.57 71.24 159.61 70.68 162.72 70.3C161.33 68.48 159.87 66.69 158.32 64.95C155.32 61.58 151.33 58.74 147.26 56.73ZM105.8 84.63C105.86 84.88 105.92 85.13 105.98 85.38C107.2 85.23 108.42 85.07 109.65 84.91C109.37 84.46 109.09 84.01 108.81 83.55C107.81 83.91 106.8 84.27 105.8 84.63ZM81.19 109.31C81.06 108.96 80.5 108.78 80.25 108.62C78.56 109.8 77.82 111.25 78.17 112.57C78.27 112.94 78.87 113.52 79.12 113.46C80.3 113.21 81.63 110.51 81.19 109.31ZM39.24 121.82C39.59 121.97 40.15 121.79 40.54 121.6C40.7 121.52 40.71 121 40.66 120.7C40.5 119.74 40.28 118.79 40.03 117.58C39.44 118.2 39.05 118.6 38.68 119.02C37.96 119.85 38.22 121.39 39.24 121.82ZM21.3 124.57C21.76 124.91 22.22 125.23 23.02 125.81C22.75 123.21 21.92 122.21 20.03 121.85C19.76 121.8 19.27 122.02 19.18 122.24C19.08 122.47 19.23 122.96 19.43 123.15C20.01 123.67 20.67 124.11 21.3 124.57ZM56.98 138.86C56.96 138.34 57.15 137.61 56.87 137.35C56.49 136.99 55.78 136.98 55.2 136.81C55.08 137.02 54.97 137.23 54.85 137.44C55.48 138.07 56.1 138.7 56.73 139.34C56.81 139.18 56.9 139.02 56.98 138.86ZM48.74 111.75C48.69 111.96 49.14 112.52 49.29 112.5C49.68 112.43 50.13 112.21 50.35 111.9C50.63 111.5 50.71 110.95 50.87 110.49C50.4 110.57 49.86 110.54 49.46 110.76C49.12 110.94 48.83 111.38 48.74 111.75ZM90.09 99.38L90.91 100.44L110.61 77.3L107.06 73.96L106.5 74.15C95.62 77.82 90.9 87.08 87.73 95.56L87.54 96.08L88.99 97.96L88.99 97.96C89.36 98.85 89.68 99.29 90.09 99.38ZM116.65 142.89C115.59 143.03 114.53 143.17 113.46 143.31C113.14 143.14 112.81 142.98 112.48 142.81C112.71 144.02 112.94 145.23 113.11 146.09C113.87 145.82 113.87 145.82 115.41 148.16C116.39 147.92 117.3 147.52 116.32 146.4C115.16 145.08 115.29 144.05 116.65 142.89ZM112.44 115.25C112.94 115.29 113.9 114.87 114.58 114.49C114.85 114.34 115.08 113.7 115.11 113.36C115.22 112.27 115.23 111.2 115.28 109.83C114.13 110.81 113.35 111.44 112.61 112.09C111.15 113.36 110.98 115.11 112.44 115.25ZM81.95 122.55C81.55 122.59 80.7 123.04 80.46 123.34C80.21 123.66 80.27 124.19 80.52 124.34C81.24 124.76 82.12 125.03 82.95 125.35C83.55 125.59 84.16 125.8 85.21 126.19C85.76 123.16 84.82 122.27 81.95 122.55ZM83.21 134.01C84.18 132.12 84.18 132.12 81.52 131.67C80.93 134.19 80.93 134.19 83.21 134.01ZM109.62 138.87C110.6 137.79 111.58 136.71 112.56 135.62L111.93 135.1C110.99 136.22 110.05 137.33 109.11 138.45C109.28 138.59 109.45 138.73 109.62 138.87ZM130.21 126.75C128.6 127.47 129.7 128.72 129.68 129.7C129.68 129.8 130.4 129.92 130.73 130.02C130.53 128.75 130.37 127.78 130.21 126.75ZM167.92 152.91C167 152.61 166.23 152.35 165.46 152.1C166.17 153.78 166.68 153.91 167.92 152.91ZM116.61 161.18C117.81 161.55 119.01 161.93 120.21 162.3C120.25 162.13 120.3 161.97 120.34 161.8C119.13 161.47 117.91 161.14 116.7 160.8C116.67 160.93 116.64 161.05 116.61 161.18ZM102.71 160.74C102.73 160.22 102.75 159.73 102.79 158.75C101.79 159.5 101.15 159.98 100.66 160.35C101.37 160.49 102 160.61 102.71 160.74Z" />
		<path id="Path 2" fill-rule="evenodd" class="shp0" d="M190.36 137.32L190.26 137.61L190.03 137.8C188.26 139.22 186.52 140.81 184.84 142.36C181.08 145.81 177.19 149.38 172.6 151.36C171.23 151.95 169.85 152.52 168.47 153.07C168.47 153.07 168.47 153.07 168.46 153.07C168.52 152.77 168.54 152.47 168.46 152.16C168.33 151.58 167.6 151.05 167.01 150.74C166.77 150.61 166.1 151.07 165.78 151.4C164.73 152.48 163.76 153.62 162.48 155.04C162.64 155.06 162.77 155.08 162.92 155.1C157.69 156.89 152.54 158.24 147.45 159.2C147.43 159.14 147.41 159.08 147.39 159.02C147.14 159.12 146.9 159.22 146.65 159.31C146.66 159.32 146.66 159.34 146.67 159.35C131.38 162.1 116.67 161.1 102.22 156.34C103.36 153.75 103.44 151.02 103.02 148.06L104.6 148.56C105.51 148.86 106.41 149.07 107.32 149.33C107.58 148.89 107.84 148.45 108.1 148.01C108.2 148.08 108.29 148.14 108.39 148.21C108.34 148.67 108.3 149.13 108.25 149.6C122.75 153.57 136.95 153.52 152.46 149.34C149.28 146.87 146.34 144.32 143.57 141.71C143.69 142.35 143.68 143.07 143.9 143.79C141.54 142.65 139.64 141.35 138.61 139.1C138.48 138.82 138.68 138.28 138.91 138.02C139.03 137.88 139.61 137.98 139.86 138.15C140.02 138.26 140.17 138.39 140.32 138.51C132.24 130.26 126.01 121.36 121.7 111.72C121.89 111.15 121.92 110.39 121.7 110.19C121.48 109.99 121.16 109.86 120.81 109.77C118.84 105.05 117.36 100.14 116.27 95.07C116.74 94.73 117.2 94.39 117.62 94.09C119.86 96.11 115.76 99.04 119.2 100.12C121.09 100.71 122.08 103.98 125.22 101.34C124.86 102.15 124.6 102.71 124.39 103.18C124.48 103.09 124.56 102.98 124.66 102.93C124.93 102.79 125.24 102.75 125.55 102.72C125.68 102.49 125.79 102.26 125.93 102.04C126.04 101.85 126.2 101.67 126.37 101.51C129.26 109.69 133.66 117.7 139.55 125.49C143.08 130.16 147.59 134.18 150.88 137.12C152.05 138.15 153.07 139.07 153.87 139.84C161.46 143.17 168.12 143.89 173.11 141.92C178.71 139.72 182.13 134.24 183 126.08C185.99 98.12 176.39 74.65 154.47 56.31C147.53 50.51 140.11 48.54 134.1 50.91C132.87 51.39 131.75 52.09 130.69 52.9C130.33 52.6 129.85 52.47 129.3 52.64C125.89 53.65 123.84 51.95 121.91 49.11C120.66 50.72 120.68 51.75 122.63 52.4C123.72 52.77 124.77 53.28 125.8 53.82C126.96 54.42 127.58 55.15 127.66 55.92C127.01 56.77 126.43 57.69 125.89 58.69C125.62 58.9 125.34 59.11 125.1 59.3C125.17 59.49 125.22 59.68 125.26 59.88C123.99 62.61 123.11 65.81 122.7 69.41C121.52 79.77 122.59 89.95 125.84 99.88C125.16 99.87 124.48 99.88 123.8 99.86C123.2 99.85 122.46 99.98 122.03 99.69C119.67 98.03 119.14 95.64 120.69 92.6C119.72 92.27 118.68 91.54 117.93 91.76C117.16 91.98 116.5 92.67 115.89 93.35C113.9 83.07 113.66 72.08 115.19 60.31C110.55 63.08 106.34 66.11 102.44 69.42C102.59 68.31 102.44 67.14 102.43 66C102.1 65.94 101.76 65.89 101.43 65.83C101.24 67.48 101.03 69.13 100.83 70.77C97.24 73.97 93.98 77.47 90.95 81.25C90.34 81.03 89.67 80.85 89.2 80.51C89.07 80.42 88.27 81.24 87.85 81.58C88.59 81.94 89.25 82.26 89.89 82.57C87.35 85.87 84.98 89.38 82.79 93.16C81.41 95.53 80.03 97.89 78.65 100.26C74.91 106.64 71.05 113.23 67.47 119.83C66.29 122.02 65.14 125.25 65.81 127.15C70.45 140.25 70.45 140.25 85.24 143.1L86.3 143.3C91.48 144.31 96.6 145.97 101.55 147.58L101.68 147.62C100.47 148.75 99.24 149.63 99.49 151.59C99.64 152.84 99.51 154.13 99.45 155.41C98.18 154.94 96.9 154.45 95.62 153.92C95.53 154.62 94.98 155.23 93.92 155.73C94.29 154.98 93.97 154.08 94.13 153.35C77.21 146.73 59.79 148.75 42.17 159.41C40.35 160.51 39.14 163.71 38.39 166.02C35.56 174.74 29.88 178.82 21.89 177.87C13.68 176.89 8.74 171.83 7.62 163.21C7.28 160.68 5.95 157.69 4.05 155.23C-1.27 148.32 -1.35 141.25 3.8 134.77C8.14 129.32 13.96 127.94 21.72 130.52C21.7 130.34 21.69 130.14 21.67 129.92C22.71 130.44 23.17 130.69 23.35 131.04C27.76 132.54 33.14 131.85 36.02 131.29C38.61 130.78 41.11 130.05 43.45 129.13C53.8 125.05 60.79 117.34 66.21 108.41C66.82 108.38 67.42 108.26 67.99 107.89C67.5 107.88 67.02 107.86 66.54 107.86C68.91 103.89 70.98 99.69 72.9 95.47C83.74 71.63 102 54.92 128.7 44.41L129.51 44.09C135.67 41.72 143.82 42.63 149.54 44.64C149.79 45.16 150.18 45.64 150.84 46.04C152.34 46.95 153.55 48.32 154.97 49.39C155.36 49.68 156.31 49.89 156.51 49.67C156.81 49.37 157.08 48.8 157.12 48.34C182.04 63.86 199.59 108.46 190.36 137.32ZM189.83 136.08C189.47 135.81 188.98 135.7 188.54 135.54C188.51 135.63 188.48 135.72 188.45 135.81C188.72 136.21 189 136.6 189.48 137.31C189.65 136.73 189.93 136.16 189.83 136.08ZM189.12 130.97C189.17 130.94 188.96 130.54 188.89 130.34C188.34 130.9 187.91 131.33 187.45 131.79C188.41 132.33 188.62 131.32 189.12 130.97ZM187.2 105C187.78 104.04 187.66 103.74 186.71 103.49C186.89 104.05 187.05 104.53 187.2 105ZM181.34 140.19C181.36 139.81 181.09 139.39 180.89 139.02C180.75 138.76 180.51 138.56 180.32 138.34C180.25 138.4 180.19 138.46 180.12 138.52C180.26 138.96 180.4 139.4 180.52 139.79C179.49 140.36 178.93 138.47 178.09 139.61C177.63 140.24 176.3 140.19 176.88 141.69C176.43 141.26 176.21 141.06 176 140.86C175.92 140.92 175.85 140.99 175.77 141.06C176.03 141.32 176.3 141.57 176.53 141.86C176.66 142.01 176.76 142.22 176.77 142.41C176.78 142.49 176.53 142.59 176.41 142.68C176.28 142.78 176.07 142.85 176.05 142.96C175.91 143.56 175.56 143.53 175.09 143.39C174.74 143.28 174.37 143.24 174.01 143.18C174 143.26 173.98 143.35 173.96 143.44C174.83 143.79 175.7 144.14 176.57 144.5C176.69 144.07 176.78 143.74 176.88 143.42C177.12 142.73 177.36 142.04 177.61 141.35C177.69 141.13 177.73 140.83 177.89 140.72C178.8 140.05 179.76 140.15 180.69 141.11C180.93 140.79 181.33 140.5 181.34 140.19ZM123.94 104.17C123.98 104.19 124.02 104.22 124.06 104.23C124.02 104.18 124 104.14 123.98 104.09C123.97 104.12 123.96 104.14 123.94 104.17ZM171.05 63.84C171.06 63.68 169.89 63.44 169.37 63.27C169.61 65.35 169.8 66.94 169.99 68.64C172.68 67.56 170.95 65.45 171.05 63.84ZM65.37 141.61C65.36 141.75 65.33 141.9 65.27 142.08C65.17 142.34 65.22 142.58 65.32 142.79C66.91 142.36 68.45 141.94 69.97 141.52C69.89 141.29 69.81 141.06 69.73 140.83C68.55 141.17 67.35 141.82 66.18 141.77C65.91 141.76 65.64 141.7 65.37 141.61ZM43.77 149.2C45.92 148.23 48.1 147.36 50.25 146.5C51.93 145.84 53.65 145.14 55.33 144.42C56.51 144.37 57.66 144.18 58.81 144C58.71 143.92 58.62 143.84 58.53 143.73C57.56 143.96 56.58 144.13 55.6 144.31C55.87 144.19 56.15 144.08 56.42 143.96C56.99 143.71 57.56 143.4 58.14 143.08C57.85 142.51 57.59 141.77 57.28 140.84C57.39 140.75 57.5 140.66 57.61 140.57C58.11 141.2 58.59 141.86 59.13 142.47C59.14 142.48 59.15 142.48 59.16 142.49C59.58 142.25 59.98 142.01 60.43 141.74C60.59 141.65 60.77 141.54 60.93 141.44C60.93 140.85 60.84 140.23 60.78 139.51C61.73 139.77 62.53 139.96 63.29 140.18C64.06 139.83 65.24 140.48 65.17 139.18C64.26 138.92 63.18 138.92 62.74 138.4C62.21 137.77 62.24 136.68 62.02 135.8C62.23 135.7 62.44 135.6 62.64 135.5C63.08 136.05 63.53 136.61 64.02 137.22C65.34 136.64 64.47 135.83 64.14 135.11C64.46 134.91 64.74 134.74 64.92 134.63C64.83 133.51 62.1 134.02 63.66 132.08C63.25 131.5 62.8 130.86 62.21 130.01C62.08 130.82 62.08 131.42 61.87 131.93C61.66 132.43 61.24 132.84 60.91 133.29C60.56 132.94 60.18 132.62 59.85 132.25L59.48 132.63C59.26 132.55 59.04 132.46 58.82 132.37C59.01 132.87 59.21 133.36 59.4 133.85C57.68 132.99 55.24 132.64 53.72 133.15C50.6 134.21 47.52 135.58 44.53 136.92C40.77 138.6 36.7 140.34 33.34 141.32C32.15 141.67 30.82 141.82 29.46 141.82C29.59 141.35 29.72 140.88 29.84 140.41C29.53 140.37 29.24 140.33 28.92 140.29C29 140.2 29.11 140.13 29.21 140.06C29.05 140 28.9 139.93 28.74 139.88C28.59 140.16 28.44 140.45 28.29 140.74C28.43 141.33 28.19 141.92 27.66 142.55C27.12 143.21 26.56 143.48 26.05 142.62C25.53 141.76 25.07 142.19 24.47 142.49C23.75 142.85 22.95 143.08 22.19 143.36C23.08 142.11 24.59 142.01 25.76 141.41C24.16 141.06 22.67 140.5 21.5 139.73C19.13 138.16 15.75 136.52 13.07 137.57C11.91 138.03 10.93 139 10.19 140.44C9.3 142.17 10.51 145.48 11.58 148.41C11.97 149.49 12.35 150.54 12.65 151.53C13.47 154.28 14.66 157.07 16.18 159.81C16.7 160.75 17.21 161.81 17.72 162.88C19.04 165.68 20.54 168.86 22.38 169.43C26.67 170.76 29.4 168.17 30.91 161.77C31.47 159.4 32.96 156.85 34.85 154.81C34.88 154.84 34.9 154.87 34.93 154.9C34.95 154.83 34.96 154.75 34.97 154.68C35.94 153.66 36.99 152.76 38.09 152.11C39.1 151.5 40.15 150.94 41.21 150.4C41.07 150.69 40.93 150.97 40.79 151.25C40.85 151.35 40.92 151.45 40.99 151.55C42.02 150.73 43.05 149.9 44.08 149.08C43.96 149.14 43.87 149.17 43.77 149.2ZM62.64 144.01C62.66 143.98 62.68 143.96 62.69 143.93C62.62 143.96 62.56 143.97 62.49 143.99L62.64 144.01ZM57.3 149.37C55.26 149.52 54.49 150.49 54.87 152.19C56.84 152.22 56.3 150.28 57.3 149.37ZM36.55 160.28C36.44 160.08 36.33 159.89 36.22 159.69C34.89 160.37 33.57 161.04 32.24 161.71C32.38 161.96 32.51 162.2 32.65 162.44C33.94 161.72 35.25 161 36.55 160.28ZM19.96 169.59C19.68 168.63 19.55 167.58 19.34 167.57C18.59 167.51 17.82 167.81 17.06 167.97C17.1 168.12 17.14 168.27 17.18 168.42C17.91 168.73 18.65 169.04 19.96 169.59ZM13.78 161.11C13.82 161.02 13.18 160.65 12.9 160.44C12.63 161.72 12.42 162.69 12.2 163.74C14 163.63 13.4 162.05 13.78 161.11ZM8.71 148.93C8.54 146.41 7.21 144.48 5.38 142.53C5.28 144.05 4.3 145.24 5.4 146.56C6.1 147.4 6.55 148.46 7.17 149.37C7.35 149.62 7.87 149.93 8.03 149.84C8.34 149.68 8.73 149.23 8.71 148.93ZM34.36 133.97C35.4 134.72 36.43 135.48 37.46 136.25C37.54 136.14 37.61 136.03 37.69 135.92C36.68 135.13 35.67 134.33 34.67 133.54C34.57 133.68 34.47 133.82 34.36 133.97ZM58.88 131.02C58.88 131.02 58.87 131.02 58.87 131.02C58.88 131.03 58.88 131.03 58.89 131.03C58.89 131.03 58.88 131.02 58.88 131.02ZM62.21 129.14C62.45 129.29 62.99 129.26 63.17 129.08C63.34 128.9 63.38 128.38 63.25 128.13C62.9 127.41 62.42 126.76 61.99 126.09C61.68 125.6 61.36 125.12 60.81 124.29C60.12 126.86 60.55 128.11 62.21 129.14ZM63.58 120.87C64.23 118.78 64.23 118.78 62.9 117.93C62.12 119.25 62.12 119.25 63.58 120.87ZM190.53 123.11C191.28 121.77 191.23 120.35 190.94 118.76C190.39 119.5 189.5 119.79 189.63 120.82C189.71 121.48 189.59 122.16 189.61 122.83C189.61 123.01 189.78 123.34 189.89 123.35C190.1 123.37 190.44 123.27 190.53 123.11Z" />
		<path id="Path 3" fill-rule="evenodd" class="shp0" d="M44.97 70.82L43.88 66.98L50.03 71.47C50.36 71.59 50.67 71.74 50.98 71.88C51.75 72.23 52.37 72.53 53.09 72.4L53.22 72.38L54.8 72.45C57.06 72.08 58.27 70.28 58.04 67.59C57.9 65.77 57.34 64.11 56.67 62.62C56.69 62.63 56.7 62.64 56.72 62.64C56.87 62.9 57.03 63.16 57.19 63.41C57.55 62.47 57.9 61.53 58.16 60.88C57.51 60.74 57.51 60.74 57.45 58.46C56.66 58.2 55.86 58.09 56.06 59.28C56.18 59.99 56.1 60.52 55.81 60.89C55.61 60.51 55.4 60.13 55.2 59.79L55.11 59.58C54.97 59.15 54.31 57.97 53.92 57.26C53.74 56.93 53.58 56.65 53.48 56.45C53.2 56.15 52.84 55.61 52.29 54.66C51.85 54.25 51.41 53.84 50.95 53.43C49.9 52.29 48.73 51.31 47.31 50.35L46.75 49.97L46.89 49.31C47.26 47.63 53.17 46.98 53.23 46.98L55.2 47.09C55.76 47.01 57.57 47.22 58.06 47.39L58.78 47.68C59.04 47.88 60.5 48.58 60.77 48.68L61.11 48.88C61.33 49.07 61.86 49.53 62.04 49.66C64.32 51.39 67.34 54.08 68.39 58.34L68.52 59.22L68.02 59.28L68.54 59.33L68.53 59.84C68.27 61.67 68.76 63.65 69.78 65.02C70.24 65.62 70.99 66.37 72.04 66.52C73.59 66.73 74.53 66.77 75.21 65.99C76.02 65.07 76.14 63.97 75.58 62.72C74.77 60.92 73.83 59.12 72.93 57.39C72.51 56.59 72.09 55.78 71.68 54.98L71.58 54.63L70.92 49.75L70.92 49.29L71.07 48.26C71.47 45.71 71.87 43.06 72.91 40.55L73.22 39.82L74.85 40.08L75.08 40.54C75.59 41.57 75.93 42.65 76.26 43.7C76.84 45.49 77.38 47.19 78.65 48.49C79.6 49.44 80.42 50.27 81.51 50.58L81.71 50.66C82.38 51.01 82.88 51.06 83.41 50.79L83.83 50.57L84.28 50.76C86.14 51.59 88.16 51.19 90.38 49.62L86.31 51L88.79 48.19C89.07 47.87 89.33 47.54 89.56 47.16C89.96 46.66 90.15 46.19 90.22 45.63C91.16 42.25 90.77 39.94 88.97 37.99C88.93 37.96 88.83 37.87 88.74 37.77C88.16 37.15 87.55 36.82 86.87 36.76L86.69 37.12L86.43 36.76C86.15 36.78 85.84 36.84 85.53 36.94L85.24 36.99L81.25 37.11C74.45 35.99 71.45 31.06 69.58 26.88C69.38 26.43 69.16 25.99 68.93 25.55L68.76 25.2L68.86 24.85C68.84 24.89 68.8 24.81 68.77 24.75C68.7 24.63 68.64 24.51 68.59 24.39C67.6 20.6 67.62 17.24 68.62 14L70 11.32L71.43 11.55L71.79 12.3L71.89 13.01C71.97 13.65 72.06 14.29 72.2 14.93C72.53 16.41 73.03 17.67 73.72 18.77L74.22 19.55L73.48 20.1C72.46 20.87 72 22.1 71.9 24.48L79.55 23.49L78.88 22.77L80.99 22.63C81.96 22.56 82.88 22.33 83.81 21.92C86.33 20.81 87.59 18.71 87.76 15.33C87.86 13.4 87.39 11.47 86.32 9.42C84.85 7.14 83.13 5.29 81.12 3.83C80.97 3.73 80.91 3.71 80.9 3.7L79.67 4.08L79.64 3.05C79.62 3.04 79.59 3.02 79.57 3.01C79.25 2.79 78.71 2.44 78.67 1.75C78.65 1.29 78.86 0.87 79.31 0.5C79.9 0 80.96 -0.68 82.07 -0.44C82.63 -0.4 83.31 -0.38 83.98 -0.36C85.16 -0.32 86.38 -0.28 87.64 -0.04C89.2 0.27 90.32 1.07 91.31 1.78C91.71 2.07 92.11 2.36 92.55 2.61C94.92 4 95.85 6.23 96.76 8.39L97.16 9.32L97.11 9.61C96.92 10.75 97.15 11.93 97.39 12.96C98.2 16.56 99.72 19.34 102.01 21.46C103.75 23.07 105.79 23.17 108.07 21.8C109.75 20.79 110.33 19.16 109.8 16.96C109.16 14.33 107.86 12.2 105.84 10.43C105.38 10.02 104.86 9.69 104.31 9.33C103.7 8.93 103.06 8.51 102.48 7.98L102.33 7.81C102.23 7.67 102.03 7.57 101.72 7.41C101.48 7.29 101.24 7.17 101.02 7.02L99.78 6.16L101.55 5.03L102.31 4.9L103.13 4.81C104.56 4.67 105.75 4.86 106.97 5.04C107.31 5.09 107.65 5.13 107.99 5.18L109.36 5.57C112.24 6.32 114.32 8.25 115.79 9.85C116.12 10.35 116.26 10.51 116.43 10.57L116.78 10.82C118.76 12.98 120.09 15.52 121.38 17.97L121.6 18.41C122.07 19.3 122.3 20.2 122.52 21.07C122.63 21.5 122.73 21.92 122.87 22.34L122.94 22.55L122.92 22.76C122.89 23 122.97 23.25 123.18 23.66L123.26 23.85C123.68 25.31 124.12 26.82 124 28.47L124.12 29.32L124.02 29.4C124.09 31.91 125.1 34.3 127.19 36.88L127.94 37.82L126.89 38.39C125.42 39.19 123.85 39.61 122.33 40.02L121.08 40.36L120.68 39.74C118.42 36.18 117.24 32.54 117.08 28.64C117.01 26.92 116.6 25.11 115.8 22.95C115.19 24.19 114.5 25.42 113.35 26.35C110.74 28.46 107.86 29.57 105.05 29.57C100.84 29.57 97.01 27.16 94.24 22.79C94.04 22.47 93.86 22.12 93.69 21.76C93.58 21.56 93.48 21.36 93.37 21.16C92.4 23.18 91.08 25.26 88.99 26.78L88.5 27.14L87.96 26.87C86.7 26.26 85.41 25.83 84.06 25.56C84.08 25.85 84.1 26.14 84.12 26.43C84.16 26.98 84.2 27.52 84.25 28.06L84.33 28.96L83.45 29.14C82.21 29.38 80.94 29.47 79.61 29.41C80.68 30.17 82.05 30.41 83.64 30.21L84.46 30.11L84.71 30.88C84.97 31.76 85.62 32.52 86.31 33.33L87.87 30.11L93.11 32.54C93.81 33.17 94.4 33.82 94.91 34.54C97.13 37.66 97.92 41.15 97.31 45.15L97.71 45.02L97.24 45.55C97.12 46.24 96.96 46.95 96.75 47.68C95.59 51.76 92.95 54.71 88.9 56.44C86.17 57.6 83.5 57.95 80.7 57.53C81.75 59.7 82.63 61.84 82.71 64.3L82.72 64.63L82.54 64.9C80.61 67.75 78.46 70.52 76.16 73.12L75.95 73.36L75.64 73.43C74.77 73.64 73.91 73.75 73.08 73.75C69.62 73.75 66.96 71.99 64.78 69.92C64.56 71.18 64.21 72.3 63.71 73.41C63.58 73.69 63.39 73.92 63.24 74.17C63.02 74 62.71 73.95 62.32 74.02C62.46 74.33 62.61 74.65 62.75 74.96C62.32 75.53 61.84 76.06 61.33 76.56C61.44 76.6 61.56 76.63 61.68 76.67C62.32 76.89 62.98 77.08 63.64 77.28C66.01 77.99 68.46 78.72 70.62 80.27L71.13 80.64L71.02 81.26C70.83 82.33 70.32 83.19 69.83 84.02C69.51 84.57 69.21 85.09 69.03 85.62L68.68 86.65L66.74 85.78C66.31 85.44 65.78 85.2 65.05 85.04L64.43 84.83C62.74 83.99 60.92 83.42 58.58 82.96C54.41 82.15 51.41 80.59 49.15 78.06L48.46 77.21L46.89 75.01L46.89 75C46.46 74.42 46.04 73.16 45.9 72.72L45.16 71.47C45.92 71.72 46.73 71.56 47.53 71.51C47.55 71.33 47.57 71.16 47.58 70.99C46.71 70.93 45.84 70.88 44.97 70.82ZM63.67 56.05C63.88 56.62 64.14 57.39 64.43 58.14C64.48 58.26 64.65 58.41 64.77 58.42C64.91 58.42 65.11 58.33 65.21 58.22C65.75 57.62 65.38 55.45 64.77 54.88C64.46 54.59 64.3 54.11 64.17 53.68C64.08 53.38 64.15 53.03 64.15 52.7C63.99 52.7 63.83 52.71 63.67 52.71L63.67 56.05ZM62.33 61.42C62.37 61.51 62.4 61.6 62.44 61.69C63.37 61.19 64.3 60.7 65.23 60.21C63.96 60.62 64.48 59.17 64.17 59.03C63.5 59.89 62.92 60.66 62.33 61.42Z" />
	</g>
</svg>