<svg xmlns="http://www.w3.org/2000/svg" viewBox="0 0 22 22" width="22" height="22">
	<defs>
		<clipPath clipPathUnits="userSpaceOnUse" id="cp1">
			<path d="M0 0L22 0L22 22L0 22Z" />
		</clipPath>
	</defs>
	<style>
		tspan { white-space:pre }
		.shp0 { fill: #e45028 } 
	</style>
	<g id="Page 1" clip-path="url(#cp1)">
		<path id="Path 1" class="shp0" d="M21.52 19.55C21.19 20.31 20.31 20.81 19.61 21.2C18.69 21.7 17.75 22 16.7 22C15.25 22 13.94 21.41 12.61 20.92C11.66 20.58 10.73 20.16 9.88 19.62C7.22 17.98 4.02 14.78 2.38 12.12C1.84 11.26 1.42 10.34 1.08 9.39C0.59 8.06 0 6.75 0 5.3C0 4.25 0.3 3.31 0.8 2.39C1.19 1.69 1.69 0.81 2.45 0.48C2.97 0.25 4.06 0 4.63 0C4.73 0 4.84 0 4.95 0.05C5.28 0.15 5.63 0.92 5.78 1.23C6.28 2.12 6.77 3.03 7.28 3.9C7.53 4.31 8 4.81 8 5.3C8 6.25 5.17 7.64 5.17 8.48C5.17 8.9 5.56 9.45 5.78 9.83C7.36 12.67 9.33 14.64 12.17 16.22C12.55 16.44 13.09 16.83 13.52 16.83C14.36 16.83 15.75 14 16.7 14C17.19 14 17.69 14.47 18.09 14.72C18.97 15.23 19.88 15.72 20.77 16.22C21.08 16.37 21.84 16.72 21.95 17.05C22 17.16 22 17.26 22 17.37C22 17.94 21.75 19.03 21.52 19.55Z" />
	</g>
</svg>