<svg xmlns="http://www.w3.org/2000/svg" viewBox="0 0 73 73" width="73" height="73">
	<defs>
		<clipPath clipPathUnits="userSpaceOnUse" id="cp1">
			<path d="M0 0L73 0L73 73L0 73Z" />
		</clipPath>
	</defs>
	<style>
		tspan { white-space:pre }
		.shp0 { fill: #ffffff } 
	</style>
	<g id="Page 1" clip-path="url(#cp1)">
		<path id="Path 1" class="shp0" d="M73.42 68.95C73.42 71.19 71.61 73 69.37 73L50.66 73L50.66 44.57L60.2 44.57L61.63 33.49L50.66 33.49L50.66 26.41C50.66 23.21 51.55 21.02 56.15 21.02L62.02 21.02L62.02 11.11C61 10.97 57.52 10.67 53.47 10.67C45.01 10.67 39.22 15.83 39.22 25.32L39.22 33.49L29.65 33.49L29.65 44.57L39.22 44.57L39.22 73L4.05 73C1.81 73 0 71.19 0 68.95L0 3.63C0 1.39 1.81 -0.42 4.05 -0.42L69.37 -0.42C71.61 -0.42 73.42 1.39 73.42 3.63L73.42 68.95Z" />
	</g>
</svg>