<svg xmlns="http://www.w3.org/2000/svg" viewBox="0 0 73 73" width="73" height="73">
	<defs>
		<clipPath clipPathUnits="userSpaceOnUse" id="cp1">
			<path d="M0 0L73 0L73 73L0 73Z" />
		</clipPath>
	</defs>
	<style>
		tspan { white-space:pre }
		.shp0 { fill: #ffffff } 
	</style>
	<g id="Page 1" clip-path="url(#cp1)">
		<path id="Path 1" fill-rule="evenodd" class="shp0" d="M73.33 8.37L73.33 64.3C73.33 69.11 69.42 73 64.61 73L8.72 73C3.9 73 0 69.11 0 64.3L0 8.37C0 3.57 3.9 -0.33 8.72 -0.33L64.61 -0.33C69.42 -0.33 73.33 3.57 73.33 8.37ZM22.65 36.42C22.65 44.19 28.96 50.49 36.75 50.49C44.54 50.49 50.85 44.19 50.85 36.42C50.85 28.65 44.54 22.36 36.75 22.36C28.96 22.36 22.65 28.65 22.65 36.42ZM52.7 18.01C52.7 19.27 53.73 20.3 54.99 20.3L61.87 20.3C63.13 20.3 64.16 19.27 64.16 18.01L64.16 11.13C64.16 9.87 63.13 8.84 61.87 8.84L54.99 8.84C53.73 8.84 52.7 9.87 52.7 11.13L52.7 18.01ZM66.45 29.46L57.29 29.46C58.77 31.23 59.06 34.39 59.06 36.42C59.06 48.69 49.05 58.68 36.75 58.68C24.45 58.68 14.44 48.69 14.44 36.42C14.44 34.39 14.85 31.18 16.04 29.46L6.87 29.46L6.87 63.83C6.87 65.1 7.9 66.13 9.17 66.13L64.16 66.13C65.43 66.13 66.45 65.1 66.45 63.83L66.45 29.46Z" />
	</g>
</svg>