<svg xmlns="http://www.w3.org/2000/svg" viewBox="0 0 75 62" width="75" height="62">
	<defs>
		<clipPath clipPathUnits="userSpaceOnUse" id="cp1">
			<path d="M0 0L75 0L75 62L0 62Z" />
		</clipPath>
	</defs>
	<style>
		tspan { white-space:pre }
		.shp0 { fill: #ffffff } 
	</style>
	<g id="Page 1" clip-path="url(#cp1)">
		<path id="Path 1" class="shp0" d="M72.84 0.73C69.87 2.54 66.58 3.85 63.07 4.55C60.28 1.49 56.28 -0.42 51.86 -0.42C43.38 -0.42 36.5 6.63 36.5 15.34C36.5 16.57 36.63 17.77 36.89 18.92C24.12 18.27 12.8 12 5.22 2.45C3.89 4.79 3.13 7.5 3.13 10.39C3.13 15.85 5.85 20.67 9.97 23.5C7.46 23.42 5.08 22.71 3.01 21.54L3.01 21.73C3.01 29.37 8.3 35.74 15.34 37.18C14.05 37.55 12.69 37.73 11.29 37.73C10.3 37.73 9.33 37.64 8.4 37.46C10.36 43.71 16.03 48.27 22.75 48.39C17.49 52.62 10.87 55.14 3.67 55.14C2.43 55.14 1.2 55.07 0 54.93C6.8 59.39 14.88 62 23.56 62C51.83 62 67.28 37.99 67.28 17.17C67.28 16.48 67.27 15.8 67.24 15.12C70.25 12.9 72.86 10.13 74.91 6.97C72.15 8.22 69.19 9.07 66.08 9.45C69.26 7.5 71.69 4.41 72.84 0.73Z" />
	</g>
</svg>