<svg xmlns="http://www.w3.org/2000/svg" viewBox="0 0 252 144" width="252" height="144">
	<defs>
		<clipPath clipPathUnits="userSpaceOnUse" id="cp1">
			<path d="M0 0L252 0L252 144L0 144Z" />
		</clipPath>
	</defs>
	<style>
		tspan { white-space:pre }
		.shp0 { fill: #ffffff } 
	</style>
	<g id="Page 1" clip-path="url(#cp1)">
		<path id="Path 1" class="shp0" d="M249.05 129.01C248.74 128.35 248.46 127.81 248.19 127.37C243.85 119.55 235.55 109.95 223.3 98.57L223.04 98.3L222.91 98.18L222.77 98.05L222.65 98.05C217.09 92.74 213.56 89.18 212.09 87.36C209.39 83.88 208.78 80.36 210.26 76.8C211.3 74.1 215.21 68.41 221.99 59.72C225.55 55.12 228.38 51.42 230.46 48.64C245.5 28.65 252.01 15.88 250.01 10.31L249.24 9.01C248.72 8.23 247.37 7.51 245.2 6.87C243.03 6.21 240.25 6.1 236.86 6.54L199.31 6.8C198.71 6.59 197.84 6.6 196.71 6.87C195.58 7.13 195.01 7.26 195.01 7.26L194.36 7.59L193.84 7.98C193.41 8.23 192.93 8.69 192.41 9.34C191.89 9.99 191.45 10.76 191.11 11.63C187.01 22.14 182.37 31.91 177.16 40.95C173.94 46.34 170.98 51.01 168.29 54.97C165.59 58.92 163.34 61.84 161.51 63.7C159.69 65.57 158.04 67.07 156.56 68.19C155.08 69.33 153.95 69.8 153.17 69.63C152.39 69.45 151.65 69.28 150.95 69.11C149.73 68.33 148.76 67.26 148.02 65.91C147.28 64.57 146.78 62.88 146.52 60.83C146.26 58.79 146.11 57.03 146.06 55.55C146.02 54.08 146.05 51.98 146.13 49.3C146.22 46.6 146.26 44.77 146.26 43.82C146.26 40.51 146.33 36.93 146.45 33.06C146.59 29.19 146.69 26.13 146.78 23.88C146.87 21.62 146.91 19.23 146.91 16.7C146.91 14.19 146.76 12.21 146.45 10.77C146.16 9.34 145.69 7.95 145.09 6.6C144.48 5.26 143.59 4.21 142.41 3.48C141.24 2.73 139.79 2.15 138.05 1.71C133.44 0.67 127.58 0.11 120.45 0.01C104.29 -0.16 93.91 0.89 89.3 3.15C87.47 4.1 85.82 5.41 84.34 7.05C82.78 8.97 82.56 10.01 83.69 10.19C88.91 10.97 92.59 12.84 94.77 15.79L95.55 17.36C96.16 18.48 96.77 20.48 97.38 23.35C97.98 26.22 98.38 29.39 98.55 32.87C98.98 39.21 98.98 44.64 98.55 49.16C98.12 53.68 97.7 57.2 97.31 59.72C96.92 62.24 96.34 64.28 95.55 65.85C94.77 67.41 94.25 68.37 93.98 68.72C93.72 69.06 93.51 69.28 93.34 69.37C92.2 69.8 91.03 70.02 89.81 70.02C88.6 70.02 87.12 69.41 85.38 68.19C83.65 66.98 81.84 65.3 79.98 63.17C78.11 61.05 76 58.07 73.65 54.24C71.3 50.42 68.88 45.91 66.35 40.69L64.26 36.91C62.96 34.48 61.18 30.94 58.92 26.28C56.66 21.63 54.66 17.14 52.93 12.79C52.23 10.97 51.19 9.58 49.8 8.62L49.15 8.23C48.71 7.88 48.01 7.51 47.06 7.12C46.1 6.73 45.11 6.44 44.06 6.27L8.34 6.53C4.7 6.53 2.22 7.36 0.91 9.01L0.39 9.79C0.13 10.23 0 10.92 0 11.88C0 12.84 0.26 14.01 0.78 15.4C6 27.65 11.66 39.47 17.8 50.85C23.92 62.24 29.24 71.41 33.76 78.36C38.28 85.31 42.88 91.87 47.58 98.04C52.27 104.21 55.38 108.16 56.9 109.91C58.42 111.65 59.62 112.94 60.48 113.81L63.74 116.94C65.83 119.03 68.89 121.53 72.94 124.44C76.98 127.35 81.45 130.22 86.36 133.05C91.27 135.87 96.98 138.17 103.51 139.95C110.02 141.73 116.37 142.45 122.54 142.1L137.53 142.1C140.57 141.84 142.87 140.88 144.44 139.23L144.95 138.59C145.3 138.06 145.63 137.26 145.93 136.17C146.23 135.09 146.39 133.89 146.39 132.59C146.3 128.85 146.59 125.48 147.23 122.48C147.88 119.49 148.62 117.23 149.45 115.71C150.28 114.19 151.21 112.91 152.26 111.87C153.3 110.82 154.04 110.19 154.48 109.98C154.91 109.76 155.25 109.61 155.51 109.51C157.6 108.82 160.05 109.5 162.88 111.54C165.7 113.59 168.35 116.1 170.84 119.1C173.31 122.1 176.29 125.47 179.76 129.2C183.24 132.94 186.28 135.72 188.88 137.55L191.49 139.11C193.23 140.16 195.49 141.11 198.27 141.98C201.05 142.85 203.48 143.07 205.57 142.63L238.94 142.11C242.24 142.11 244.81 141.56 246.63 140.48C248.46 139.39 249.54 138.19 249.89 136.9C250.24 135.59 250.26 134.12 249.96 132.46C249.65 130.81 249.34 129.66 249.05 129.01Z" />
	</g>
</svg>